<svg width="642" height="600" viewBox="0 0 642 746" fill="none" xmlns="http://www.w3.org/2000/svg">
<path d="M320.751 745.446C497.897 745.446 641.502 663.866 641.502 563.234C641.502 462.601 497.897 381.021 320.751 381.021C143.605 381.021 0 462.601 0 563.234C0 663.866 143.605 745.446 320.751 745.446Z" fill="#F5F5F5" fill-opacity="0.4"/>
<path d="M454.228 678.121L214.8 539.875C212.694 538.661 210.944 536.914 209.728 534.81C208.511 532.705 207.871 530.317 207.871 527.886C207.871 525.456 208.511 523.068 209.728 520.963C210.944 518.859 212.694 517.111 214.8 515.898L238.419 501.004C242.496 498.656 247.118 497.42 251.823 497.42C256.528 497.42 261.151 498.656 265.228 501.004L504.688 639.266C506.795 640.48 508.544 642.227 509.76 644.331C510.977 646.436 511.617 648.824 511.617 651.255C511.617 653.686 510.977 656.074 509.76 658.178C508.544 660.283 506.795 662.03 504.688 663.243L481.07 678.121C476.991 680.482 472.361 681.725 467.649 681.725C462.936 681.725 458.307 680.482 454.228 678.121Z" fill="#E0E0E0"/>
<path d="M90.178 552.083C118.874 552.083 142.136 538.725 142.136 522.246C142.136 505.768 118.874 492.409 90.178 492.409C61.4822 492.409 38.2197 505.768 38.2197 522.246C38.2197 538.725 61.4822 552.083 90.178 552.083Z" fill="#E6E6E6"/>
<path d="M446.936 661.599L236.368 540.022C221.506 531.443 209.461 508.427 209.461 488.617V37.7258C209.461 17.9159 221.506 8.81671 236.368 17.395L446.936 138.973C461.797 147.551 473.843 170.568 473.843 190.378V641.269C473.843 661.062 461.797 670.178 446.936 661.599Z" fill="#455A64"/>
<path d="M471.189 124.795L260.605 3.21721C254.257 -0.445257 248.43 -0.868477 243.823 1.37784C243.259 1.66027 242.715 1.98115 242.195 2.33822L218.593 16.0603C223.346 13.2117 229.564 13.4233 236.384 17.3625L446.952 138.94C461.813 147.519 473.859 170.535 473.859 190.345V641.236C473.859 651.719 470.489 659.141 465.118 662.657L488.411 649.098C494.352 645.94 498.178 638.208 498.178 627.123V176.232C498.178 156.39 486.051 133.373 471.189 124.795Z" fill="#37474F"/>
<path d="M473.843 190.345V641.236C473.843 651.719 470.473 659.142 465.102 662.657L488.411 649.098C494.353 645.94 498.178 638.208 498.178 627.123V176.232L473.924 190.313L473.843 190.345Z" fill="#263238"/>
<path d="M498.097 211.213L473.843 225.212V236.151L498.097 222.135V211.213Z" fill="#37474F"/>
<path d="M487.467 283.958C485.302 285.211 483.544 283.876 483.544 280.995V257.474C483.566 256.004 483.932 254.559 484.614 253.256C485.295 251.953 486.272 250.827 487.467 249.97C489.632 248.717 491.39 249.97 491.39 252.933V276.454C491.368 277.924 491.001 279.369 490.32 280.672C489.639 281.975 488.662 283.101 487.467 283.958Z" fill="#37474F"/>
<path d="M483.528 281.061V257.474C483.55 256.004 483.916 254.559 484.597 253.256C485.278 251.953 486.256 250.827 487.451 249.97C487.808 249.72 488.224 249.568 488.657 249.528C489.091 249.488 489.528 249.562 489.925 249.742L486.978 248.228C486.575 248.035 486.128 247.95 485.683 247.985C485.237 248.019 484.808 248.171 484.439 248.424C483.243 249.281 482.264 250.406 481.58 251.709C480.896 253.012 480.526 254.457 480.5 255.928V279.433C480.439 280.027 480.529 280.626 480.763 281.175C480.996 281.725 481.365 282.206 481.835 282.574L484.911 284.202C484.422 283.849 484.035 283.372 483.792 282.82C483.548 282.267 483.457 281.66 483.528 281.061Z" fill="#455A64"/>
<path d="M487.467 340.881C485.302 342.134 483.544 340.881 483.544 337.918V314.397C483.567 312.927 483.934 311.483 484.615 310.18C485.296 308.877 486.273 307.751 487.467 306.893C489.632 305.64 491.39 306.893 491.39 309.872V333.377C491.37 334.848 491.005 336.293 490.324 337.597C489.642 338.901 488.664 340.026 487.467 340.881Z" fill="#37474F"/>
<path d="M483.528 337.918V314.397C483.551 312.927 483.918 311.483 484.599 310.18C485.28 308.877 486.257 307.751 487.451 306.893C487.81 306.648 488.225 306.498 488.658 306.458C489.091 306.418 489.527 306.49 489.925 306.665L486.979 305.135C486.578 304.933 486.13 304.844 485.682 304.878C485.234 304.913 484.805 305.069 484.44 305.331C483.241 306.185 482.26 307.309 481.575 308.613C480.891 309.916 480.523 311.363 480.5 312.835V336.405C480.438 336.998 480.527 337.599 480.761 338.148C480.994 338.698 481.364 339.179 481.835 339.546L484.912 341.174C484.402 340.813 484.003 340.317 483.758 339.742C483.514 339.167 483.434 338.536 483.528 337.918Z" fill="#455A64"/>
<path d="M439.578 151.621L232.657 32.1101C231.793 31.6133 230.815 31.351 229.818 31.3491C228.822 31.3473 227.843 31.606 226.977 32.0996C226.112 32.5932 225.39 33.3045 224.885 34.163C224.379 35.0214 224.107 35.9972 224.095 36.9934V488.617C224.095 503.69 234.789 522.198 247.844 529.734L449.687 646.331C450.644 646.882 451.729 647.171 452.834 647.17C453.938 647.169 455.023 646.878 455.979 646.326C456.935 645.773 457.73 644.979 458.282 644.023C458.835 643.067 459.127 641.982 459.128 640.878V185.527C459.209 173.091 450.387 157.839 439.578 151.621Z" fill="#FF6B00"/>
<path opacity="0.9" d="M439.578 151.621L232.657 32.1101C231.793 31.6133 230.815 31.351 229.818 31.3491C228.822 31.3473 227.843 31.606 226.977 32.0996C226.112 32.5932 225.39 33.3045 224.885 34.163C224.379 35.0214 224.107 35.9972 224.095 36.9934V488.617C224.095 503.69 234.789 522.198 247.844 529.734L449.687 646.331C450.644 646.882 451.729 647.171 452.834 647.17C453.938 647.169 455.023 646.878 455.979 646.326C456.935 645.773 457.73 644.979 458.282 644.023C458.835 643.067 459.127 641.982 459.128 640.878V185.527C459.209 173.091 450.387 157.839 439.578 151.621Z" fill="white"/>
<path d="M294.544 63.3142L297.751 76.8084L366.345 116.363L378.195 110.047L294.544 63.3142Z" fill="#455A64"/>
<path d="M314.712 76.3526C314.712 78.5989 313.084 79.4942 311.196 78.3873C310.182 77.7143 309.341 76.813 308.739 75.7557C308.136 74.6984 307.791 73.5147 307.729 72.2995C307.729 70.0695 309.357 69.1579 311.245 70.2811C312.258 70.9505 313.1 71.8489 313.702 72.9035C314.305 73.9582 314.65 75.1397 314.712 76.3526Z" fill="#263238"/>
<path d="M360.924 104.92C360.549 104.917 360.18 104.822 359.85 104.643L324.82 85.1102C324.326 84.8197 323.964 84.3474 323.813 83.7941C323.662 83.2407 323.734 82.6503 324.012 82.1488C324.29 81.6473 324.754 81.2745 325.303 81.1101C325.853 80.9456 326.445 81.0025 326.953 81.2686L361.999 100.802C362.425 101.039 362.76 101.41 362.952 101.858C363.143 102.307 363.18 102.806 363.057 103.277C362.934 103.749 362.658 104.166 362.272 104.464C361.886 104.761 361.412 104.922 360.924 104.92Z" fill="#263238"/>
<path d="M267.491 126.097C265.358 124.86 263.812 125.934 263.812 128.653C263.812 130.012 264.148 131.35 264.79 132.549C265.431 133.747 266.359 134.768 267.491 135.522C268.097 135.89 268.792 136.084 269.501 136.084C270.21 136.084 270.905 135.89 271.511 135.522L274.913 141.675C273.716 142.335 272.36 142.65 270.994 142.584C269.629 142.518 268.309 142.073 267.181 141.3C264.418 139.609 262.113 137.263 260.472 134.47C258.831 131.676 257.904 128.521 257.773 125.283C257.773 119.244 261.826 117.144 267.409 120.4C270.562 122.43 273.145 125.232 274.913 128.539L271.511 131.241C270.672 129.188 269.281 127.407 267.491 126.097Z" fill="#FF6B00"/>
<path d="M294.496 146.493C294.496 152.581 290.377 154.632 284.729 151.376C281.886 149.678 279.507 147.303 277.803 144.463C276.1 141.623 275.124 138.407 274.962 135.099C274.962 129.011 279.081 126.96 284.729 130.215C287.579 131.907 289.963 134.28 291.668 137.121C293.373 139.962 294.344 143.183 294.496 146.493ZM281.001 138.729C281.03 140.126 281.39 141.497 282.052 142.728C282.715 143.959 283.66 145.015 284.81 145.809C286.829 146.981 288.457 145.809 288.457 143.042C288.451 141.676 288.117 140.331 287.482 139.122C286.848 137.912 285.931 136.873 284.81 136.092C282.759 134.903 281.001 135.913 281.001 138.729Z" fill="#FF6B00"/>
<path d="M301.055 140.031L308.087 154.681V144.133L313.41 147.209V167.735L308.527 164.903L301.527 150.383V160.866L296.172 157.773V137.198L301.055 140.031Z" fill="#FF6B00"/>
<path d="M330.811 157.204V162.575L325.732 159.645V174.816L319.856 171.414V156.243L314.81 153.33V147.974L330.811 157.204Z" fill="#FF6B00"/>
<path d="M342.27 181.458L335.596 177.6L334.685 179.976L328.662 176.493L336.166 160.297L342.205 163.78L349.432 188.49L343.165 184.876L342.27 181.458ZM340.821 175.76L338.998 168.745L337.126 173.628L340.821 175.76Z" fill="#FF6B00"/>
<path d="M358.76 178.788C356.627 177.567 355.081 178.625 355.081 181.36C355.084 182.719 355.421 184.056 356.062 185.254C356.704 186.452 357.63 187.474 358.76 188.229C359.37 188.593 360.067 188.786 360.778 188.786C361.489 188.786 362.186 188.593 362.797 188.229L366.199 194.382C364.997 195.035 363.638 195.345 362.272 195.279C360.906 195.213 359.584 194.773 358.45 194.008C355.684 192.315 353.379 189.966 351.737 187.17C350.096 184.373 349.17 181.214 349.042 177.974C349.042 171.935 353.111 169.835 358.678 173.091C361.827 175.131 364.413 177.93 366.199 181.23L362.797 183.916C361.939 181.873 360.544 180.101 358.76 178.788Z" fill="#FF6B00"/>
<path d="M382.248 186.911V192.266L377.169 189.336V204.555L371.293 201.153V185.983L366.247 183.069V177.714L382.248 186.911Z" fill="#FF6B00"/>
<path d="M399.616 212.108C401.065 212.938 402.172 212.287 402.172 210.253V198.419L408.065 201.805V213.638C408.065 219.091 404.809 220.719 399.6 217.74C397.091 216.347 394.981 214.332 393.473 211.89C391.966 209.447 391.11 206.658 390.989 203.79V191.957L396.882 195.359V207.192C396.904 208.172 397.165 209.132 397.642 209.988C398.118 210.845 398.796 211.572 399.616 212.108Z" fill="#FF6B00"/>
<path d="M417.554 212.174C416.887 211.799 416.464 211.783 416.464 212.401C416.464 214.973 425.66 218.685 425.66 226.123C425.66 230.681 422.193 230.697 418.189 228.386C414.669 226.229 411.637 223.363 409.285 219.971L411.466 216.129C413.256 218.9 415.554 221.308 418.238 223.226C419.101 223.731 419.654 223.731 419.654 222.998C419.654 220.329 410.441 216.78 410.441 209.569C410.441 205.467 413.436 204.686 418.059 207.29C421.037 209.091 423.658 211.425 425.791 214.176L423.658 218.115C421.897 215.872 419.844 213.874 417.554 212.174Z" fill="#FF6B00"/>
<path d="M237.882 227.247C244.486 219.135 247.811 208.842 247.199 198.4C246.588 187.957 242.085 178.123 234.579 170.837C227.073 163.552 217.109 159.344 206.653 159.044C196.197 158.744 186.008 162.373 178.097 169.216C170.185 176.06 165.126 185.62 163.917 196.01C162.708 206.4 165.436 216.867 171.565 225.344C177.694 233.821 186.777 239.693 197.022 241.802C207.268 243.911 217.932 242.104 226.91 236.736L247.29 245.591L237.882 227.247Z" fill="#FF6B00"/>
<path opacity="0.4" d="M237.882 227.247C244.486 219.135 247.811 208.842 247.199 198.4C246.588 187.957 242.085 178.123 234.579 170.837C227.073 163.552 217.109 159.344 206.653 159.044C196.197 158.744 186.008 162.373 178.097 169.216C170.185 176.06 165.126 185.62 163.917 196.01C162.708 206.4 165.436 216.867 171.565 225.344C177.694 233.821 186.777 239.693 197.022 241.802C207.268 243.911 217.932 242.104 226.91 236.736L247.29 245.591L237.882 227.247Z" fill="black"/>
<path d="M189.96 198.598C189.96 197.963 189.505 197.605 188.674 197.605C186.749 197.857 184.95 198.705 183.531 200.03L181.219 195.538C183.652 193.707 186.591 192.672 189.635 192.575C193.541 192.575 196.504 194.626 196.504 197.686C196.504 199.868 194.876 201.967 192.793 204.067L189.879 206.948H196.764V211.734H181.968V207.811L188.56 200.991C189.27 200.363 189.761 199.524 189.96 198.598Z" fill="white"/>
<path d="M208.81 192.852L204.317 203.628H206.157V199.998H211.821V203.628H213.97V208.071H211.821V211.734H206.157V208.071H198.099V204.035L202.982 192.852H208.81Z" fill="white"/>
<path d="M231.452 202.342V211.734H225.397V204.084C225.432 203.834 225.413 203.581 225.341 203.339C225.27 203.098 225.147 202.875 224.982 202.686C224.817 202.496 224.613 202.344 224.384 202.239C224.155 202.135 223.906 202.081 223.655 202.081C222.467 202.081 221.718 203.009 221.718 204.442V211.734H215.663V191.778H221.718V199.119C222.192 198.37 222.852 197.757 223.634 197.341C224.416 196.924 225.292 196.718 226.178 196.742C226.904 196.724 227.625 196.858 228.295 197.137C228.966 197.417 229.569 197.834 230.067 198.363C230.565 198.891 230.945 199.519 231.184 200.204C231.423 200.89 231.514 201.618 231.452 202.342Z" fill="white"/>
<path d="M428.9 353.594V555.844C428.903 558.131 428.304 560.379 427.162 562.361C426.021 564.344 424.377 565.99 422.397 567.136C420.417 568.281 418.17 568.884 415.883 568.885C413.595 568.886 411.348 568.284 409.367 567.14L300.437 504.243L281.131 493.11C274.484 489.266 268.961 483.744 265.117 477.097C261.272 470.45 259.239 462.91 259.222 455.232V252.965C259.218 250.678 259.818 248.43 260.959 246.448C262.101 244.465 263.744 242.819 265.724 241.674C267.705 240.528 269.952 239.925 272.239 239.924C274.527 239.923 276.774 240.525 278.755 241.669L407.023 315.716C413.673 319.554 419.196 325.074 423.037 331.724C426.877 338.373 428.899 345.915 428.9 353.594Z" fill="#FF6B00"/>
<path opacity="0.5" d="M428.9 353.594V555.844C428.903 558.131 428.304 560.379 427.162 562.361C426.021 564.344 424.377 565.99 422.397 567.136C420.417 568.281 418.17 568.884 415.883 568.885C413.595 568.886 411.348 568.284 409.367 567.14L300.437 504.243L281.131 493.11C274.484 489.266 268.961 483.744 265.117 477.097C261.272 470.45 259.239 462.91 259.222 455.232V252.965C259.218 250.678 259.818 248.43 260.959 246.448C262.101 244.465 263.744 242.819 265.724 241.674C267.705 240.528 269.952 239.925 272.239 239.924C274.527 239.923 276.774 240.525 278.755 241.669L407.023 315.716C413.673 319.554 419.196 325.074 423.037 331.724C426.877 338.373 428.899 345.915 428.9 353.594Z" fill="white"/>
<path d="M366.15 473.267C366.15 473.267 386.546 507.092 371.815 545.231L300.388 504.243L366.15 473.267Z" fill="#263238"/>
<path d="M398.677 321.295C400.22 308.758 391.309 297.345 378.773 295.801C366.237 294.257 354.823 303.168 353.279 315.704C351.736 328.241 360.647 339.654 373.183 341.198C385.719 342.742 397.133 333.831 398.677 321.295Z" fill="#263238"/>
<path d="M376.095 254.349C376.095 254.349 383.111 242.955 385.26 243.785C387.408 244.615 383.86 255.472 383.86 255.472C383.86 255.472 394.473 257.686 392.503 260.355C390.533 263.025 377.56 262.39 377.56 262.39L376.095 254.349Z" fill="#263238"/>
<path d="M380.978 283.714C376.095 320.404 345.168 320.404 345.168 320.404L280.383 291.885C280.383 291.885 275.499 287.604 274.002 277.772C273.427 273.745 273.427 269.657 274.002 265.629C274.002 265.629 274.002 265.548 274.002 265.515C276.069 250.084 287.61 233.497 312.743 228.402C318.25 227.29 323.857 226.745 329.476 226.775C332.194 226.765 334.911 226.901 337.615 227.182C357.148 229.102 370.837 238.218 377.365 252.396C378.833 255.596 379.925 258.955 380.62 262.406C381.945 269.437 382.066 276.642 380.978 283.714Z" fill="#263238"/>
<path d="M225.446 354.684C225.446 354.684 202.445 353.887 193.59 376.301C193.59 376.301 203.357 382.894 216.167 376.301C228.978 369.709 225.446 354.684 225.446 354.684Z" fill="#FF6B00"/>
<path opacity="0.5" d="M225.446 354.684C225.446 354.684 202.445 353.887 193.59 376.301C193.59 376.301 203.357 382.894 216.167 376.301C228.978 369.709 225.446 354.684 225.446 354.684Z" fill="black"/>
<path d="M224.795 365.477C224.795 365.477 218.283 337.186 214.849 336.844C211.414 336.502 210.747 345.471 211.024 350.534L202.885 333.019C202.627 332.475 202.26 331.989 201.807 331.592C201.354 331.195 200.824 330.895 200.251 330.71C199.677 330.526 199.072 330.461 198.472 330.519C197.873 330.577 197.292 330.758 196.764 331.049C188.626 335.526 174.35 349.134 204.447 382.78L224.795 365.477Z" fill="#945959"/>
<path d="M308.136 345.911L303.253 345.276C298.331 344.623 293.325 345.293 288.748 347.215C284.171 349.137 280.188 352.244 277.208 356.214L248.153 394.89L225.364 354.684C225.364 354.684 222.63 382.031 193.509 376.301L224.778 428.927C226.757 432.258 229.511 435.063 232.807 437.101C236.103 439.139 239.842 440.352 243.706 440.634C247.571 440.917 251.447 440.263 255.004 438.726C258.561 437.189 261.695 434.816 264.138 431.808L290.898 398.911L308.136 345.911Z" fill="#FF6B00"/>
<path d="M370.154 436.17C363.643 452.676 362.927 455.899 366.898 464.152C369.664 470.247 371.845 476.591 373.409 483.099C373.409 483.099 343.231 516.924 300.274 504.26L280.969 493.126C276.954 490.81 273.337 487.865 270.258 484.401L276.134 440.582C276.43 438.275 276.196 435.931 275.451 433.729L269.281 415.644C266.271 406.811 265.823 397.307 267.989 388.23C270.155 379.153 274.847 370.875 281.522 364.353L302.26 344.088L356.725 351.054L364.864 353.382C370.192 354.923 374.785 358.335 377.799 362.991C380.814 367.647 382.047 373.234 381.272 378.726C378.602 397.934 374.24 425.801 370.154 436.17Z" fill="#FF6B00"/>
<path opacity="0.5" d="M370.154 436.17C363.643 452.676 362.927 455.899 366.898 464.152C369.664 470.247 371.845 476.591 373.409 483.099C373.409 483.099 343.231 516.924 300.274 504.26L280.969 493.126C276.954 490.81 273.337 487.865 270.258 484.401L276.134 440.582C276.43 438.275 276.196 435.931 275.451 433.729L269.281 415.644C266.271 406.811 265.823 397.307 267.989 388.23C270.155 379.153 274.847 370.875 281.522 364.353L302.26 344.088L356.725 351.054L364.864 353.382C370.192 354.923 374.785 358.335 377.799 362.991C380.814 367.647 382.047 373.234 381.272 378.726C378.602 397.934 374.24 425.801 370.154 436.17Z" fill="black"/>
<path d="M337.306 386.865L326.4 377.571C325.245 376.583 323.852 375.913 322.359 375.627C320.866 375.342 319.325 375.451 317.887 375.943L304.702 380.484L302.927 373.094C302.651 371.945 302.144 370.863 301.437 369.914C300.731 368.966 299.84 368.17 298.818 367.575C297.795 366.981 296.663 366.599 295.49 366.454C294.316 366.308 293.125 366.402 291.989 366.73L286.275 368.358L295.944 349.834C299.101 343.801 303.964 338.83 309.927 335.542L313.719 333.458L345.054 335.086C345.054 335.086 356.725 339.969 356.725 350.957L337.306 386.768" fill="#FF6B00"/>
<path d="M345.184 348.971L313.768 373.452V295.499H345.184V348.971Z" fill="#945959"/>
<path d="M314.257 342.541L304.702 380.55L345.054 348.971L314.257 342.541Z" fill="#945959"/>
<path d="M313.768 336.893C320.754 334.299 327.14 330.312 332.537 325.175C337.935 320.037 342.232 313.856 345.168 307.007V295.499H313.752L313.768 336.893Z" fill="#703838"/>
<path d="M320.54 237.729C308.625 237.729 283.297 244.371 280.367 275.559C277.437 306.747 280.269 330.903 296.351 333.247C312.434 335.591 349.807 323.92 354.821 283.551C359.834 243.182 332.146 237.729 320.54 237.729Z" fill="#945959"/>
<path d="M301.788 288.76V307.137L291.012 303.833L301.788 288.76Z" fill="#703838"/>
<path d="M313.768 295.678C315.836 295.678 317.512 294.002 317.512 291.934C317.512 289.866 315.836 288.19 313.768 288.19C311.701 288.19 310.024 289.866 310.024 291.934C310.024 294.002 311.701 295.678 313.768 295.678Z" fill="#263238"/>
<path d="M292.868 289.33C292.864 290.069 292.642 290.792 292.229 291.405C291.815 292.019 291.23 292.496 290.545 292.777C289.861 293.058 289.109 293.13 288.383 292.983C287.658 292.837 286.993 292.479 286.471 291.955C285.949 291.431 285.594 290.764 285.451 290.038C285.308 289.312 285.383 288.56 285.666 287.877C285.95 287.194 286.43 286.61 287.045 286.199C287.661 285.789 288.384 285.57 289.124 285.57C289.617 285.57 290.105 285.667 290.56 285.856C291.015 286.045 291.429 286.323 291.777 286.672C292.125 287.021 292.4 287.436 292.587 287.892C292.774 288.348 292.87 288.837 292.868 289.33Z" fill="#263238"/>
<path d="M284.55 281.516L291.875 277.17C291.875 277.17 289.075 274.256 286.275 275.998C283.475 277.74 284.55 281.516 284.55 281.516Z" fill="#263238"/>
<path d="M296.726 314.592C300.293 314.853 303.843 313.901 306.801 311.89C306.801 311.89 307.501 317.213 303.041 318.222C298.581 319.232 296.726 314.592 296.726 314.592Z" fill="#703838"/>
<path d="M290.328 248.342C290.328 248.342 294.804 291.397 353.355 292.748C353.355 292.748 371.049 249.954 336.085 236.053C301.12 222.152 290.328 248.342 290.328 248.342Z" fill="#263238"/>
<path d="M370.593 286.302L363.399 282.135C360.664 280.507 356.887 280.735 352.704 283.144C344.403 287.93 337.664 299.601 337.664 309.188C337.664 313.99 339.291 317.327 342.091 318.955L349.156 323.024L349.563 323.252L349.807 323.399C352.476 324.701 356.041 324.392 359.964 322.129C368.266 317.246 375.004 305.672 375.004 296.085C374.956 291.234 373.279 287.881 370.593 286.302Z" fill="#FF6B00"/>
<path d="M370.537 310.819C376.407 300.652 376.407 289.661 370.537 286.272C364.667 282.883 355.149 288.378 349.279 298.546C343.408 308.714 343.408 319.704 349.278 323.093C355.149 326.482 364.666 320.987 370.537 310.819Z" fill="#FF6B00"/>
<path opacity="0.5" d="M370.537 310.819C376.407 300.652 376.407 289.661 370.537 286.272C364.667 282.883 355.149 288.378 349.279 298.546C343.408 308.714 343.408 319.704 349.278 323.093C355.149 326.482 364.666 320.987 370.537 310.819Z" fill="black"/>
<path d="M373.475 295.336L368.591 292.488C366.736 291.381 364.147 291.527 361.283 293.171C358.29 295.127 355.799 297.759 354.012 300.856C352.225 303.952 351.192 307.426 350.995 310.995C350.995 314.251 352.151 316.578 354.023 317.653L358.906 320.436C358.993 320.499 359.085 320.554 359.183 320.599L359.346 320.697C360.49 321.131 361.724 321.278 362.938 321.125C364.153 320.971 365.311 320.523 366.312 319.818C369.303 317.864 371.792 315.234 373.579 312.14C375.366 309.047 376.401 305.577 376.6 302.01C376.47 298.706 375.33 296.41 373.475 295.336Z" fill="#FF6B00"/>
<path d="M376.47 301.977C376.271 305.544 375.236 309.014 373.449 312.108C371.662 315.201 369.173 317.831 366.182 319.785C360.485 323.04 355.878 320.404 355.878 313.844C356.071 310.274 357.106 306.8 358.896 303.705C360.687 300.61 363.183 297.982 366.182 296.036C371.863 292.748 376.47 295.401 376.47 301.977Z" fill="#FF6B00"/>
<path opacity="0.3" d="M376.47 301.977C376.271 305.544 375.236 309.014 373.449 312.108C371.662 315.201 369.173 317.831 366.182 319.785C360.485 323.04 355.878 320.404 355.878 313.844C356.071 310.274 357.106 306.8 358.896 303.705C360.687 300.61 363.183 297.982 366.182 296.036C371.863 292.748 376.47 295.401 376.47 301.977Z" fill="black"/>
<path d="M348.244 229.33C343.578 225.726 337.863 223.743 331.967 223.682H330.518C324.548 223.618 318.586 224.163 312.727 225.31C313.801 225.31 314.875 225.31 315.982 225.31H312.727V228.337H315.754C326.189 228.692 336.076 233.09 343.327 240.602C350.578 248.114 354.623 258.151 354.609 268.592V281.402C354.608 281.909 354.714 282.41 354.92 282.872C355.126 283.335 355.426 283.75 355.802 284.089C356.178 284.428 356.621 284.684 357.103 284.841C357.584 284.998 358.093 285.052 358.597 285H358.971L362.227 283.991C362.01 284.059 361.786 284.103 361.56 284.121C362.53 283.989 363.418 283.505 364.055 282.76C364.691 282.016 365.031 281.063 365.01 280.084V268.201C364.978 246.698 355.683 235.141 348.244 229.33Z" fill="#FF6B00"/>
<path d="M327.751 332.351C326.408 332.351 325.081 332.063 323.86 331.505L313.687 326.801C313.528 326.744 313.382 326.654 313.259 326.538C313.136 326.422 313.039 326.282 312.973 326.126C312.907 325.971 312.875 325.803 312.877 325.634C312.879 325.465 312.917 325.298 312.987 325.145C313.057 324.991 313.158 324.853 313.284 324.741C313.41 324.628 313.558 324.543 313.719 324.49C313.88 324.438 314.049 324.42 314.218 324.436C314.386 324.453 314.549 324.504 314.696 324.587L324.87 329.291C326.167 329.895 327.621 330.078 329.027 329.815C330.434 329.552 331.723 328.857 332.715 327.826L342.482 317.734C342.711 317.505 343.021 317.377 343.345 317.377C343.668 317.377 343.979 317.505 344.207 317.734C344.432 317.965 344.558 318.274 344.558 318.597C344.558 318.919 344.432 319.228 344.207 319.459L334.441 329.552C333.571 330.444 332.531 331.152 331.381 331.633C330.232 332.115 328.997 332.359 327.751 332.351Z" fill="#FF6B00"/>
<path opacity="0.5" d="M327.751 332.351C326.408 332.351 325.081 332.063 323.86 331.505L313.687 326.801C313.528 326.744 313.382 326.654 313.259 326.538C313.136 326.422 313.039 326.282 312.973 326.126C312.907 325.971 312.875 325.803 312.877 325.634C312.879 325.465 312.917 325.298 312.987 325.145C313.057 324.991 313.158 324.853 313.284 324.741C313.41 324.628 313.558 324.543 313.719 324.49C313.88 324.438 314.049 324.42 314.218 324.436C314.386 324.453 314.549 324.504 314.696 324.587L324.87 329.291C326.167 329.895 327.621 330.078 329.027 329.815C330.434 329.552 331.723 328.857 332.715 327.826L342.482 317.734C342.711 317.505 343.021 317.377 343.345 317.377C343.668 317.377 343.979 317.505 344.207 317.734C344.432 317.965 344.558 318.274 344.558 318.597C344.558 318.919 344.432 319.228 344.207 319.459L334.441 329.552C333.571 330.444 332.531 331.152 331.381 331.633C330.232 332.115 328.997 332.359 327.751 332.351Z" fill="black"/>
<path d="M316.356 323.382C316.356 324.323 316.077 325.241 315.555 326.023C315.033 326.805 314.291 327.414 313.422 327.774C312.554 328.133 311.598 328.228 310.676 328.044C309.754 327.861 308.907 327.408 308.242 326.743C307.578 326.079 307.125 325.232 306.941 324.31C306.758 323.388 306.852 322.432 307.212 321.564C307.572 320.695 308.181 319.953 308.963 319.43C309.744 318.908 310.663 318.629 311.603 318.629C312.864 318.629 314.073 319.13 314.964 320.022C315.855 320.913 316.356 322.122 316.356 323.382Z" fill="#FF6B00"/>
<path opacity="0.5" d="M316.356 323.382C316.356 324.323 316.077 325.241 315.555 326.023C315.033 326.805 314.291 327.414 313.422 327.774C312.554 328.133 311.598 328.228 310.676 328.044C309.754 327.861 308.907 327.408 308.242 326.743C307.578 326.079 307.125 325.232 306.941 324.31C306.758 323.388 306.852 322.432 307.212 321.564C307.572 320.695 308.181 319.953 308.963 319.43C309.744 318.908 310.663 318.629 311.603 318.629C312.864 318.629 314.073 319.13 314.964 320.022C315.855 320.913 316.356 322.122 316.356 323.382Z" fill="black"/>
<path d="M364.978 268.201V280.084C364.999 281.063 364.658 282.016 364.022 282.76C363.385 283.505 362.497 283.989 361.527 284.121C360.991 284.178 360.448 284.122 359.935 283.955C359.422 283.789 358.95 283.517 358.549 283.156C358.149 282.795 357.828 282.354 357.609 281.861C357.39 281.368 357.278 280.835 357.278 280.296V268.201C357.288 262.429 356.129 256.715 353.872 251.402C351.615 246.089 348.307 241.288 344.147 237.287C339.986 233.286 335.059 230.169 329.662 228.121C324.265 226.074 318.51 225.14 312.743 225.375C318.602 224.228 324.564 223.683 330.534 223.747H331.95C337.846 223.808 343.562 225.791 348.228 229.395C355.683 235.141 364.978 246.699 364.978 268.201Z" fill="#FF6B00"/>
<path opacity="0.5" d="M364.978 268.201V280.084C364.999 281.063 364.658 282.016 364.022 282.76C363.385 283.505 362.497 283.989 361.527 284.121C360.991 284.178 360.448 284.122 359.935 283.955C359.422 283.789 358.95 283.517 358.549 283.156C358.149 282.795 357.828 282.354 357.609 281.861C357.39 281.368 357.278 280.835 357.278 280.296V268.201C357.288 262.429 356.129 256.715 353.872 251.402C351.615 246.089 348.307 241.288 344.147 237.287C339.986 233.286 335.059 230.169 329.662 228.121C324.265 226.074 318.51 225.14 312.743 225.375C318.602 224.228 324.564 223.683 330.534 223.747H331.95C337.846 223.808 343.562 225.791 348.228 229.395C355.683 235.141 364.978 246.699 364.978 268.201Z" fill="black"/>
<path d="M346.682 492.133C346.682 492.133 338.803 513.831 366.964 523.598C366.964 523.598 376.16 510.087 366.964 499.035C357.767 487.982 346.682 492.133 346.682 492.133Z" fill="#FF6B00"/>
<path opacity="0.7" d="M346.682 492.133C346.682 492.133 338.803 513.831 366.964 523.598C366.964 523.598 376.16 510.087 366.964 499.035C357.767 487.982 346.682 492.133 346.682 492.133Z" fill="black"/>
<path d="M356.562 493.126C356.562 493.126 329.053 503.202 329.2 507.108C329.346 511.015 340.887 508.345 340.887 508.345L336.671 511.113C332.231 514.009 328.793 518.204 326.823 523.125C326.394 524.211 326.379 525.416 326.781 526.512C327.183 527.608 327.975 528.517 329.004 529.067L339.454 534.601C340.045 534.914 340.692 535.106 341.357 535.165C342.022 535.223 342.693 535.148 343.329 534.943C343.965 534.738 344.553 534.408 345.059 533.972C345.565 533.536 345.978 533.002 346.275 532.404C346.857 531.253 347.662 530.229 348.643 529.39C349.624 528.552 350.761 527.917 351.988 527.52C357.669 525.632 368.266 520.195 372.514 505.318L356.562 493.126Z" fill="#945959"/>
<path d="M364.815 353.35C364.815 353.35 350.165 361.488 357.946 386.198C365.727 410.907 380.328 449.241 380.328 449.241L346.682 492.133C350.276 492.566 353.739 493.753 356.844 495.616C359.949 497.478 362.626 499.974 364.701 502.941C366.689 505.958 367.93 509.405 368.324 512.996C368.717 516.588 368.251 520.222 366.964 523.598L408.732 469.881C412.595 464.917 415.159 459.069 416.194 452.864C417.228 446.66 416.7 440.296 414.657 434.347L396.752 382.063C394.563 375.677 390.926 369.883 386.125 365.136C381.325 360.389 375.491 356.818 369.08 354.701L364.815 353.35Z" fill="#FF6B00"/>
<path d="M117.524 207.388L52.7882 169.949C52.0432 169.433 51.1813 169.11 50.2803 169.011C49.3794 168.911 48.4679 169.038 47.6282 169.38C47.4512 169.461 47.2823 169.559 47.1236 169.673L33.0434 177.925H33.1411C31.3668 178.935 30.2437 181.279 30.2437 184.632V256.644C30.2437 262.732 33.9387 269.813 38.5127 272.45L103.249 309.888C104.07 310.482 105.048 310.822 106.061 310.866C107.074 310.909 108.077 310.654 108.946 310.132C108.902 310.15 108.863 310.178 108.832 310.214L122.815 302.075C124.638 301.098 125.793 298.722 125.793 295.32V223.193C125.793 217.106 122.164 210.025 117.524 207.388Z" fill="#FF6B00"/>
<path d="M123.482 214.208C122.172 211.423 120.109 209.06 117.524 207.388L52.7882 169.949C52.0433 169.433 51.1813 169.11 50.2804 169.011C49.3794 168.911 48.4679 169.038 47.6282 169.38C47.4513 169.461 47.2823 169.559 47.1236 169.673L33.0435 177.925C33.9048 177.485 34.8705 177.29 35.8352 177.362C36.7998 177.434 37.7261 177.769 38.5127 178.332L103.249 215.771C105.921 217.518 108.039 219.991 109.353 222.9L123.482 214.208Z" fill="#FF6B00"/>
<path d="M111.518 303.556C111.518 306.812 110.476 309.074 108.832 310.067L122.815 301.928C124.638 300.952 125.793 298.575 125.793 295.173V223.193C125.725 220.06 124.934 216.985 123.482 214.208L109.353 222.9C110.709 225.596 111.449 228.559 111.518 231.576V303.556Z" fill="#FF6B00"/>
<path opacity="0.3" d="M123.482 214.208C122.172 211.423 120.109 209.06 117.524 207.388L52.7882 169.949C52.0433 169.433 51.1813 169.11 50.2804 169.011C49.3794 168.911 48.4679 169.038 47.6282 169.38C47.4513 169.461 47.2823 169.559 47.1236 169.673L33.0435 177.925C33.9048 177.485 34.8705 177.29 35.8352 177.362C36.7998 177.434 37.7261 177.769 38.5127 178.332L103.249 215.771C105.921 217.518 108.039 219.991 109.353 222.9L123.482 214.208Z" fill="black"/>
<path opacity="0.6" d="M111.518 303.556C111.518 306.812 110.476 309.074 108.832 310.067L122.815 301.928C124.638 300.952 125.793 298.575 125.793 295.173V223.193C125.725 220.06 124.934 216.985 123.482 214.208L109.353 222.9C110.709 225.596 111.449 228.559 111.518 231.576V303.556Z" fill="black"/>
<path d="M92.5381 252.2C92.5381 261.527 88.8431 264.701 83.3087 261.495C81.782 260.625 80.4469 259.456 79.3839 258.058C78.3209 256.659 77.5519 255.06 77.1232 253.356C75.4954 255.358 72.9724 255.488 69.4238 253.437C63.5964 250.068 59.0061 242.043 59.0061 234.246C59.0061 226.449 63.5476 223.763 69.4238 227.149C72.4057 228.906 74.8143 231.49 76.3581 234.588V231.511L82.4948 235.06V251.923C82.4034 252.811 82.5569 253.706 82.9386 254.513C83.3202 255.319 83.9155 256.006 84.6597 256.497C86.727 257.702 87.9967 255.667 87.9967 249.628C87.9967 239.064 81.2251 227.865 71.2144 222.086C61.2036 216.308 54.4484 220.328 54.4484 231.202C54.5796 236.972 56.1694 242.614 59.0698 247.604C61.9701 252.593 66.0865 256.767 71.0353 259.737C73.7224 261.392 76.7737 262.364 79.9229 262.569L81.3717 268.185C77.7047 267.889 74.1612 266.723 71.0353 264.783C58.0132 257.246 49.4023 242.075 49.4023 228.337C49.4023 214.599 58.0946 209.618 71.2144 217.203C83.8947 224.512 92.5381 239.145 92.5381 252.2ZM76.4558 244.371C76.4875 242.307 75.9838 240.269 74.9939 238.458C74.004 236.647 72.5617 235.122 70.8074 234.034C67.5519 232.13 65.2242 233.465 65.2242 237.892C65.1823 239.96 65.6742 242.003 66.6521 243.825C67.6301 245.647 69.0613 247.186 70.8074 248.293C74.063 250.133 76.4558 248.945 76.4558 244.371Z" fill="#FF6B00"/>
<g opacity="0.9">
<path d="M92.5381 252.2C92.5381 261.527 88.8431 264.701 83.3087 261.495C81.782 260.625 80.4469 259.456 79.3839 258.058C78.3209 256.659 77.5519 255.06 77.1232 253.356C75.4954 255.358 72.9724 255.488 69.4238 253.437C63.5964 250.068 59.0061 242.043 59.0061 234.246C59.0061 226.449 63.5476 223.763 69.4238 227.149C72.4057 228.906 74.8143 231.49 76.3581 234.588V231.511L82.4948 235.06V251.923C82.4034 252.811 82.5569 253.706 82.9386 254.513C83.3202 255.319 83.9155 256.006 84.6597 256.497C86.727 257.702 87.9967 255.667 87.9967 249.628C87.9967 239.064 81.2251 227.865 71.2144 222.086C61.2036 216.308 54.4484 220.328 54.4484 231.202C54.5796 236.972 56.1694 242.614 59.0698 247.604C61.9701 252.593 66.0865 256.767 71.0353 259.737C73.7224 261.392 76.7737 262.364 79.9229 262.569L81.3717 268.185C77.7047 267.889 74.1612 266.723 71.0353 264.783C58.0132 257.246 49.4023 242.075 49.4023 228.337C49.4023 214.599 58.0946 209.618 71.2144 217.203C83.8947 224.512 92.5381 239.145 92.5381 252.2ZM76.4558 244.371C76.4875 242.307 75.9838 240.269 74.9939 238.458C74.004 236.647 72.5617 235.122 70.8074 234.034C67.5519 232.13 65.2242 233.465 65.2242 237.892C65.1823 239.96 65.6742 242.003 66.6521 243.825C67.6301 245.647 69.0613 247.186 70.8074 248.293C74.063 250.133 76.4558 248.945 76.4558 244.371Z" fill="white"/>
</g>
<path d="M117.524 335.623L52.7882 298.184C52.0443 297.665 51.1812 297.342 50.2792 297.246C49.3772 297.149 48.4653 297.281 47.6282 297.631C47.4512 297.713 47.2823 297.811 47.1236 297.924L33.0434 306.177H33.1411C31.3668 307.186 30.2437 309.53 30.2437 312.867V384.847C30.2437 390.951 33.9387 398.015 38.5127 400.652L103.249 438.091C104.069 438.689 105.047 439.031 106.061 439.075C107.074 439.118 108.078 438.861 108.946 438.335L108.832 438.433L122.815 430.213C124.638 429.252 125.793 426.957 125.793 423.457V351.412C125.793 345.325 122.164 338.26 117.524 335.623Z" fill="#FF6B00"/>
<path d="M123.482 342.443C122.177 339.655 120.112 337.291 117.524 335.623L52.7882 298.184C52.0443 297.665 51.1813 297.342 50.2793 297.246C49.3772 297.149 48.4654 297.281 47.6282 297.631C47.4513 297.713 47.2823 297.811 47.1236 297.924L33.0435 306.177C33.9028 305.732 34.8681 305.534 35.8331 305.603C36.798 305.672 37.7253 306.005 38.5127 306.567L103.249 344.006C105.925 345.755 108.044 348.235 109.353 351.152L123.482 342.443Z" fill="#FF6B00"/>
<path d="M111.518 431.775C111.518 435.031 110.476 437.293 108.832 438.368L122.815 430.147C124.638 429.187 125.793 426.892 125.793 423.392V351.412C125.724 348.284 124.933 345.215 123.482 342.443L109.353 351.136C110.709 353.825 111.449 356.784 111.518 359.795V431.775Z" fill="#FF6B00"/>
<path opacity="0.3" d="M123.482 342.443C122.177 339.655 120.112 337.291 117.524 335.623L52.7882 298.184C52.0443 297.665 51.1813 297.342 50.2793 297.246C49.3772 297.149 48.4654 297.281 47.6282 297.631C47.4513 297.713 47.2823 297.811 47.1236 297.924L33.0435 306.177C33.9028 305.732 34.8681 305.534 35.8331 305.603C36.798 305.672 37.7253 306.005 38.5127 306.567L103.249 344.006C105.925 345.755 108.044 348.235 109.353 351.152L123.482 342.443Z" fill="black"/>
<path opacity="0.6" d="M111.518 431.775C111.518 435.031 110.476 437.293 108.832 438.368L122.815 430.147C124.638 429.187 125.793 426.892 125.793 423.392V351.412C125.724 348.284 124.933 345.215 123.482 342.443L109.353 351.136C110.709 353.825 111.449 356.784 111.518 359.795V431.775Z" fill="black"/>
<path d="M63.6454 367.804L48.0352 342.443V376.805L63.6454 367.804Z" fill="#FF6B00"/>
<path d="M78.1489 375.113L93.7266 402.085V367.771L78.1489 375.113Z" fill="#FF6B00"/>
<path d="M50.3955 341.288L66.429 367.332C66.4969 367.389 66.5571 367.455 66.608 367.527C66.6222 367.592 66.6222 367.658 66.608 367.723L71.3774 375.471L75.4143 373.566C75.4771 373.498 75.5482 373.438 75.6259 373.387C75.785 373.295 75.9631 373.239 76.1468 373.225L92.4244 365.59L50.3955 341.288Z" fill="#FF6B00"/>
<path d="M75.7886 376.22L71.4262 378.271C71.2581 378.349 71.0744 378.388 70.889 378.385C70.6643 378.387 70.4428 378.331 70.246 378.223C70.0492 378.115 69.8838 377.957 69.7658 377.766L64.9965 370.018L49.3374 379.068L91.4802 403.387L75.7886 376.22Z" fill="#FF6B00"/>
<g opacity="0.9">
<path d="M63.6454 367.804L48.0352 342.444V376.806L63.6454 367.804Z" fill="white"/>
<path d="M78.1489 375.113L93.7266 402.085V367.771L78.1489 375.113Z" fill="white"/>
<path d="M50.3955 341.288L66.429 367.332C66.4969 367.389 66.5571 367.455 66.608 367.527C66.6222 367.592 66.6222 367.658 66.608 367.723L71.3774 375.471L75.4143 373.566C75.4771 373.498 75.5482 373.438 75.6259 373.387C75.785 373.295 75.9631 373.239 76.1468 373.225L92.4244 365.59L50.3955 341.288Z" fill="white"/>
<path d="M75.7886 376.22L71.4262 378.271C71.2581 378.349 71.0744 378.388 70.889 378.385C70.6643 378.387 70.4428 378.331 70.246 378.223C70.0492 378.115 69.8838 377.957 69.7658 377.766L64.9965 370.018L49.3374 379.068L91.4802 403.387L75.7886 376.22Z" fill="white"/>
</g>
<path d="M117.524 79.2176L52.7882 41.779C52.0443 41.2598 51.1812 40.9368 50.2792 40.8401C49.3772 40.7433 48.4653 40.8759 47.6282 41.2255C47.4512 41.3072 47.2823 41.4053 47.1236 41.5185L33.0434 49.7713H33.1411C31.3668 50.7642 30.2437 53.1245 30.2437 56.4614V128.441C30.2437 134.529 33.9387 141.61 38.5127 144.247L103.249 181.685C104.069 182.283 105.047 182.626 106.061 182.669C107.074 182.713 108.078 182.455 108.946 181.93L108.832 182.011L122.815 173.872C124.638 172.912 125.793 170.617 125.793 167.117V94.958C125.793 88.8702 122.164 81.7894 117.524 79.2176Z" fill="#FF6B00"/>
<path d="M123.482 85.9891C122.177 83.1963 120.113 80.8271 117.524 79.1525L52.7882 41.779C52.0443 41.2598 51.1813 40.9368 50.2793 40.8401C49.3772 40.7433 48.4654 40.8759 47.6282 41.2255C47.4513 41.3072 47.2823 41.4053 47.1236 41.5185L33.0435 49.7713C33.9028 49.3269 34.8681 49.1283 35.8331 49.1972C36.798 49.2661 37.7253 49.6 38.5127 50.162L103.249 87.6006C105.925 89.3498 108.044 91.8298 109.353 94.7464L123.482 85.9891Z" fill="#FF6B00"/>
<path d="M111.518 175.256C111.518 178.511 110.476 180.774 108.832 181.767L122.815 173.628C124.638 172.668 125.793 170.372 125.793 166.873V94.958C125.724 91.8301 124.933 88.7606 123.482 85.989L109.353 94.6813C110.709 97.3711 111.449 100.329 111.518 103.341V175.256Z" fill="#FF6B00"/>
<path opacity="0.3" d="M123.482 85.9891C122.177 83.1963 120.113 80.8271 117.524 79.1525L52.7882 41.779C52.0443 41.2598 51.1813 40.9368 50.2793 40.8401C49.3772 40.7433 48.4654 40.8759 47.6282 41.2255C47.4513 41.3072 47.2823 41.4053 47.1236 41.5185L33.0435 49.7713C33.9028 49.3269 34.8681 49.1283 35.8331 49.1972C36.798 49.2661 37.7253 49.6 38.5127 50.162L103.249 87.6006C105.925 89.3498 108.044 91.8298 109.353 94.7464L123.482 85.9891Z" fill="black"/>
<path opacity="0.6" d="M111.518 175.256C111.518 178.511 110.476 180.774 108.832 181.767L122.815 173.628C124.638 172.668 125.793 170.372 125.793 166.873V94.958C125.724 91.8301 124.933 88.7606 123.482 85.989L109.353 94.6813C110.709 97.3711 111.449 100.329 111.518 103.341V175.256Z" fill="black"/>
<path d="M90.3409 144.328C87.8504 140.226 85.3437 136.189 82.8532 132.055C82.4582 131.272 81.9059 130.578 81.231 130.018C80.556 129.458 79.7728 129.043 78.9303 128.799C77.7257 128.555 76.5212 128.278 75.2841 127.92C74.8435 127.737 74.4729 127.417 74.226 127.009C70.1508 120.034 66.9109 112.604 64.5734 104.871C64.5237 104.706 64.5095 104.532 64.532 104.361C64.5544 104.19 64.6129 104.025 64.7036 103.878C65.4686 103.113 66.3314 102.413 67.1127 101.73C67.894 101.046 68.301 99.467 67.7312 97.4161C66.5267 93.0699 65.371 88.7238 64.1664 84.3939C63.9334 83.1637 63.3804 82.0165 62.5631 81.0678C61.7459 80.1191 60.6932 79.4024 59.511 78.9898C56.8861 78.26 54.0993 78.3623 51.535 79.2828C50.542 79.6571 50.0212 80.5524 50.0049 82.0988C50.4281 85.0776 50.7048 88.0238 51.2745 91.0515C55.2897 112.885 64.9478 132.961 80.2488 151.279C80.6482 151.886 81.1849 152.391 81.8154 152.753C82.4459 153.115 83.1527 153.324 83.8787 153.362C86.4119 153.302 88.8456 152.364 90.7641 150.709C92.2128 149.407 92.0663 147.095 90.3409 144.328Z" fill="#FF6B00"/>
<path d="M90.1453 122.142C89.8047 117.46 88.5143 112.896 86.3526 108.729C84.7386 105.474 82.6846 102.456 80.2484 99.76C79.6136 99.0438 79.0765 98.8159 78.7509 99.353C78.4254 99.8902 78.7509 100.655 79.3695 101.355L80.0043 102.088C84.5034 107.281 87.3389 113.706 88.1431 120.53C88.1352 121.028 88.1843 121.525 88.2896 122.012C88.4941 122.571 88.8224 123.078 89.25 123.493C89.5918 123.737 89.9825 123.493 90.2592 123.493C90.1615 122.825 90.1778 122.484 90.1453 122.142Z" fill="#FF6B00"/>
<path d="M75.3978 108.778C77.4419 111.026 78.684 113.888 78.9301 116.917C79.0373 117.377 79.207 117.821 79.4347 118.235C80.4276 119.049 80.9159 118.772 80.9159 117.747C80.5679 113.864 78.9619 110.2 76.3419 107.313C75.7234 106.678 75.2188 106.483 74.9258 107.02C74.8204 107.326 74.809 107.658 74.8931 107.971C74.9772 108.284 75.1529 108.565 75.3978 108.778Z" fill="#FF6B00"/>
<g opacity="0.9">
<path d="M90.3409 144.328C87.8504 140.226 85.3437 136.189 82.8532 132.055C82.4582 131.272 81.9059 130.578 81.231 130.018C80.556 129.458 79.7728 129.043 78.9303 128.799C77.7257 128.555 76.5212 128.278 75.2841 127.92C74.8435 127.737 74.4729 127.417 74.226 127.009C70.1508 120.034 66.9109 112.604 64.5734 104.871C64.5237 104.706 64.5095 104.532 64.532 104.361C64.5544 104.19 64.6129 104.025 64.7036 103.878C65.4686 103.113 66.3314 102.413 67.1127 101.73C67.894 101.046 68.301 99.467 67.7312 97.4161C66.5267 93.0699 65.371 88.7238 64.1664 84.3939C63.9334 83.1637 63.3804 82.0165 62.5631 81.0678C61.7459 80.1191 60.6932 79.4024 59.511 78.9898C56.8861 78.26 54.0993 78.3623 51.535 79.2828C50.542 79.6571 50.0212 80.5524 50.0049 82.0988C50.4281 85.0776 50.7048 88.0238 51.2745 91.0515C55.2897 112.885 64.9478 132.961 80.2488 151.279C80.6482 151.886 81.1849 152.391 81.8154 152.753C82.4459 153.115 83.1527 153.324 83.8787 153.362C86.4119 153.302 88.8456 152.364 90.7641 150.709C92.2128 149.407 92.0663 147.095 90.3409 144.328Z" fill="white"/>
<path d="M90.1458 122.142C89.8052 117.46 88.5148 112.896 86.3531 108.729C84.7391 105.474 82.6851 102.456 80.2489 99.76C79.6141 99.0438 79.077 98.8159 78.7514 99.353C78.4258 99.8902 78.7514 100.655 79.3699 101.355L80.0048 102.088C84.5039 107.281 87.3393 113.706 88.1436 120.53C88.1356 121.028 88.1848 121.525 88.2901 122.012C88.4946 122.571 88.8228 123.078 89.2505 123.493C89.5923 123.737 89.983 123.493 90.2597 123.493C90.162 122.825 90.1783 122.484 90.1458 122.142Z" fill="white"/>
<path d="M75.3978 108.778C77.4419 111.026 78.684 113.888 78.9301 116.917C79.0373 117.377 79.207 117.821 79.4347 118.235C80.4276 119.049 80.9159 118.772 80.9159 117.747C80.5679 113.864 78.9619 110.2 76.3419 107.313C75.7234 106.678 75.2188 106.483 74.9258 107.02C74.8204 107.326 74.809 107.658 74.8931 107.971C74.9772 108.284 75.1529 108.565 75.3978 108.778Z" fill="white"/>
</g>
<path d="M449.67 36.0493L464.922 44.7253V39.3211C464.922 38.9467 464.922 38.5561 464.922 38.1817C464.922 37.8073 464.922 37.4492 464.922 37.0911V36.8957C465.476 29.7498 470.896 26.9989 477.505 30.8242C480.497 32.6644 483.061 35.123 485.025 38.0352C486.506 28.2686 494.434 24.8177 504.021 30.3358C514.667 36.4888 523.294 51.4968 523.294 63.7376V75.2947C523.279 76.2192 523.507 77.1314 523.955 77.9399C524.404 78.7485 525.057 79.4248 525.849 79.9013L534.835 85.159C536.774 86.3087 538.381 87.9422 539.5 89.8995C540.618 91.8569 541.209 94.0711 541.216 96.3254C541.216 97.2607 540.97 98.1796 540.502 98.9894C540.034 99.7993 539.361 100.472 538.551 100.939C537.74 101.406 536.821 101.651 535.886 101.65C534.951 101.649 534.032 101.401 533.223 100.932L449.898 52.7664C447.687 51.4827 445.851 49.6429 444.572 47.4298C443.293 45.2167 442.615 42.7075 442.605 40.1513C442.605 39.3238 442.821 38.5108 443.234 37.7935C443.646 37.0762 444.24 36.48 444.956 36.0645C445.671 35.649 446.483 35.4289 447.311 35.4262C448.138 35.4236 448.952 35.6384 449.67 36.0493Z" fill="#E6E6E6"/>
<path d="M565.941 33.7866L577.026 40.1512V36.1794C577.026 35.9027 577.026 35.626 577.026 35.3493C577.026 35.0725 577.026 34.8121 577.026 34.5517V34.454C577.433 29.2614 581.373 27.2593 586.175 30.0427C588.349 31.3751 590.214 33.1566 591.644 35.2679C592.734 28.2034 598.497 25.6478 605.464 29.6684C613.212 34.1447 619.479 45.0182 619.479 53.9546V62.3702C619.484 63.0299 619.662 63.6767 619.993 64.2474C620.324 64.8181 620.797 65.293 621.367 65.6257L627.878 69.4509C629.295 70.2841 630.468 71.4739 631.282 72.9019C632.096 74.3299 632.522 75.9461 632.517 77.5898C632.516 78.263 632.34 78.9242 632.005 79.5085C631.671 80.0927 631.19 80.5797 630.61 80.9214C630.03 81.2632 629.371 81.4479 628.698 81.4574C628.024 81.4669 627.36 81.3008 626.771 80.9755L566.104 45.946C564.497 45.016 563.162 43.6798 562.233 42.0714C561.305 40.463 560.815 38.6388 560.814 36.7817C560.813 36.1806 560.969 35.5898 561.268 35.0682C561.567 34.5465 561.997 34.1125 562.516 33.8093C563.035 33.5061 563.625 33.3445 564.226 33.3405C564.827 33.3365 565.418 33.4903 565.941 33.7866Z" fill="#E6E6E6"/>
</svg>
