<svg width="310" height="140" viewBox="0 0 418 141" fill="none" xmlns="http://www.w3.org/2000/svg">
<path d="M142.488 73L135.48 60.28H133.512V73H125.304V39.304H139.08C141.736 39.304 143.992 39.768 145.848 40.696C147.736 41.624 149.144 42.904 150.072 44.536C151 46.136 151.464 47.928 151.464 49.912C151.464 52.152 150.824 54.152 149.544 55.912C148.296 57.672 146.44 58.92 143.976 59.656L151.752 73H142.488ZM133.512 54.472H138.6C140.104 54.472 141.224 54.104 141.96 53.368C142.728 52.632 143.112 51.592 143.112 50.248C143.112 48.968 142.728 47.96 141.96 47.224C141.224 46.488 140.104 46.12 138.6 46.12H133.512V54.472ZM164.825 45.88V52.696H175.817V59.032H164.825V66.424H177.257V73H156.617V39.304H177.257V45.88H164.825ZM181.193 56.104C181.193 52.776 181.913 49.816 183.353 47.224C184.793 44.6 186.793 42.568 189.353 41.128C191.945 39.656 194.873 38.92 198.137 38.92C202.137 38.92 205.561 39.976 208.409 42.088C211.257 44.2 213.161 47.08 214.121 50.728H205.097C204.425 49.32 203.465 48.248 202.217 47.512C201.001 46.776 199.609 46.408 198.041 46.408C195.513 46.408 193.465 47.288 191.897 49.048C190.329 50.808 189.545 53.16 189.545 56.104C189.545 59.048 190.329 61.4 191.897 63.16C193.465 64.92 195.513 65.8 198.041 65.8C199.609 65.8 201.001 65.432 202.217 64.696C203.465 63.96 204.425 62.888 205.097 61.48H214.121C213.161 65.128 211.257 68.008 208.409 70.12C205.561 72.2 202.137 73.24 198.137 73.24C194.873 73.24 191.945 72.52 189.353 71.08C186.793 69.608 184.793 67.576 183.353 64.984C181.913 62.392 181.193 59.432 181.193 56.104ZM227.356 39.304V73H219.148V39.304H227.356ZM255.24 39.304V45.88H241.512V52.984H251.784V59.368H241.512V73H233.304V39.304H255.24ZM267.762 45.88V52.696H278.754V59.032H267.762V66.424H280.194V73H259.554V39.304H280.194V45.88H267.762ZM315.667 73H307.459L293.731 52.216V73H285.523V39.304H293.731L307.459 60.184V39.304H315.667V73ZM333.809 73.336C331.345 73.336 329.137 72.936 327.185 72.136C325.233 71.336 323.665 70.152 322.481 68.584C321.329 67.016 320.721 65.128 320.657 62.92H329.393C329.521 64.168 329.953 65.128 330.689 65.8C331.425 66.44 332.385 66.76 333.569 66.76C334.785 66.76 335.745 66.488 336.449 65.944C337.153 65.368 337.505 64.584 337.505 63.592C337.505 62.76 337.217 62.072 336.641 61.528C336.097 60.984 335.409 60.536 334.577 60.184C333.777 59.832 332.625 59.432 331.121 58.984C328.945 58.312 327.169 57.64 325.793 56.968C324.417 56.296 323.233 55.304 322.241 53.992C321.249 52.68 320.753 50.968 320.753 48.856C320.753 45.72 321.889 43.272 324.161 41.512C326.433 39.72 329.393 38.824 333.041 38.824C336.753 38.824 339.745 39.72 342.017 41.512C344.289 43.272 345.505 45.736 345.665 48.904H336.785C336.721 47.816 336.321 46.968 335.585 46.36C334.849 45.72 333.905 45.4 332.753 45.4C331.761 45.4 330.961 45.672 330.353 46.216C329.745 46.728 329.441 47.48 329.441 48.472C329.441 49.56 329.953 50.408 330.977 51.016C332.001 51.624 333.601 52.28 335.777 52.984C337.953 53.72 339.713 54.424 341.057 55.096C342.433 55.768 343.617 56.744 344.609 58.024C345.601 59.304 346.097 60.952 346.097 62.968C346.097 64.888 345.601 66.632 344.609 68.2C343.649 69.768 342.241 71.016 340.385 71.944C338.529 72.872 336.337 73.336 333.809 73.336ZM359.356 45.88V52.696H370.348V59.032H359.356V66.424H371.788V73H351.148V39.304H371.788V45.88H359.356ZM389.309 73.336C386.845 73.336 384.637 72.936 382.685 72.136C380.733 71.336 379.165 70.152 377.981 68.584C376.829 67.016 376.221 65.128 376.157 62.92H384.893C385.021 64.168 385.453 65.128 386.189 65.8C386.925 66.44 387.885 66.76 389.069 66.76C390.285 66.76 391.245 66.488 391.949 65.944C392.653 65.368 393.005 64.584 393.005 63.592C393.005 62.76 392.717 62.072 392.141 61.528C391.597 60.984 390.909 60.536 390.077 60.184C389.277 59.832 388.125 59.432 386.621 58.984C384.445 58.312 382.669 57.64 381.293 56.968C379.917 56.296 378.733 55.304 377.741 53.992C376.749 52.68 376.253 50.968 376.253 48.856C376.253 45.72 377.389 43.272 379.661 41.512C381.933 39.72 384.893 38.824 388.541 38.824C392.253 38.824 395.245 39.72 397.517 41.512C399.789 43.272 401.005 45.736 401.165 48.904H392.285C392.221 47.816 391.821 46.968 391.085 46.36C390.349 45.72 389.405 45.4 388.253 45.4C387.261 45.4 386.461 45.672 385.853 46.216C385.245 46.728 384.941 47.48 384.941 48.472C384.941 49.56 385.453 50.408 386.477 51.016C387.501 51.624 389.101 52.28 391.277 52.984C393.453 53.72 395.213 54.424 396.557 55.096C397.933 55.768 399.117 56.744 400.109 58.024C401.101 59.304 401.597 60.952 401.597 62.968C401.597 64.888 401.101 66.632 400.109 68.2C399.149 69.768 397.741 71.016 395.885 71.944C394.029 72.872 391.837 73.336 389.309 73.336Z" fill="white"/>
<path d="M211.857 86.776C211.857 85.944 212.037 85.204 212.397 84.556C212.757 83.9 213.257 83.392 213.897 83.032C214.545 82.664 215.277 82.48 216.093 82.48C217.093 82.48 217.949 82.744 218.661 83.272C219.373 83.8 219.849 84.52 220.089 85.432H217.833C217.665 85.08 217.425 84.812 217.113 84.628C216.809 84.444 216.461 84.352 216.069 84.352C215.437 84.352 214.925 84.572 214.533 85.012C214.141 85.452 213.945 86.04 213.945 86.776C213.945 87.512 214.141 88.1 214.533 88.54C214.925 88.98 215.437 89.2 216.069 89.2C216.461 89.2 216.809 89.108 217.113 88.924C217.425 88.74 217.665 88.472 217.833 88.12H220.089C219.849 89.032 219.373 89.752 218.661 90.28C217.949 90.8 217.093 91.06 216.093 91.06C215.277 91.06 214.545 90.88 213.897 90.52C213.257 90.152 212.757 89.644 212.397 88.996C212.037 88.348 211.857 87.608 211.857 86.776ZM224.394 91.096C223.738 91.096 223.146 90.956 222.618 90.676C222.098 90.396 221.686 89.996 221.382 89.476C221.086 88.956 220.938 88.348 220.938 87.652C220.938 86.964 221.09 86.36 221.394 85.84C221.698 85.312 222.114 84.908 222.642 84.628C223.17 84.348 223.762 84.208 224.418 84.208C225.074 84.208 225.666 84.348 226.194 84.628C226.722 84.908 227.138 85.312 227.442 85.84C227.746 86.36 227.898 86.964 227.898 87.652C227.898 88.34 227.742 88.948 227.43 89.476C227.126 89.996 226.706 90.396 226.17 90.676C225.642 90.956 225.05 91.096 224.394 91.096ZM224.394 89.32C224.786 89.32 225.118 89.176 225.39 88.888C225.67 88.6 225.81 88.188 225.81 87.652C225.81 87.116 225.674 86.704 225.402 86.416C225.138 86.128 224.81 85.984 224.418 85.984C224.018 85.984 223.686 86.128 223.422 86.416C223.158 86.696 223.026 87.108 223.026 87.652C223.026 88.188 223.154 88.6 223.41 88.888C223.674 89.176 224.002 89.32 224.394 89.32ZM237.53 84.232C238.362 84.232 239.022 84.484 239.51 84.988C240.006 85.492 240.254 86.192 240.254 87.088V91H238.214V87.364C238.214 86.932 238.098 86.6 237.866 86.368C237.642 86.128 237.33 86.008 236.93 86.008C236.53 86.008 236.214 86.128 235.982 86.368C235.758 86.6 235.646 86.932 235.646 87.364V91H233.606V87.364C233.606 86.932 233.49 86.6 233.258 86.368C233.034 86.128 232.722 86.008 232.322 86.008C231.922 86.008 231.606 86.128 231.374 86.368C231.15 86.6 231.038 86.932 231.038 87.364V91H228.986V84.304H231.038V85.144C231.246 84.864 231.518 84.644 231.854 84.484C232.19 84.316 232.57 84.232 232.994 84.232C233.498 84.232 233.946 84.34 234.338 84.556C234.738 84.772 235.05 85.08 235.274 85.48C235.506 85.112 235.822 84.812 236.222 84.58C236.622 84.348 237.058 84.232 237.53 84.232ZM248.001 87.544C248.001 87.736 247.989 87.936 247.965 88.144H243.321C243.353 88.56 243.485 88.88 243.717 89.104C243.957 89.32 244.249 89.428 244.593 89.428C245.105 89.428 245.461 89.212 245.661 88.78H247.845C247.733 89.22 247.529 89.616 247.233 89.968C246.945 90.32 246.581 90.596 246.141 90.796C245.701 90.996 245.209 91.096 244.665 91.096C244.009 91.096 243.425 90.956 242.913 90.676C242.401 90.396 242.001 89.996 241.713 89.476C241.425 88.956 241.281 88.348 241.281 87.652C241.281 86.956 241.421 86.348 241.701 85.828C241.989 85.308 242.389 84.908 242.901 84.628C243.413 84.348 244.001 84.208 244.665 84.208C245.313 84.208 245.889 84.344 246.393 84.616C246.897 84.888 247.289 85.276 247.569 85.78C247.857 86.284 248.001 86.872 248.001 87.544ZM245.901 87.004C245.901 86.652 245.781 86.372 245.541 86.164C245.301 85.956 245.001 85.852 244.641 85.852C244.297 85.852 244.005 85.952 243.765 86.152C243.533 86.352 243.389 86.636 243.333 87.004H245.901ZM246.045 82.588L243.153 83.8V82.384L246.045 80.992V82.588ZM251.136 85.42C251.376 85.052 251.676 84.764 252.036 84.556C252.396 84.34 252.796 84.232 253.236 84.232V86.404H252.672C252.16 86.404 251.776 86.516 251.52 86.74C251.264 86.956 251.136 87.34 251.136 87.892V91H249.084V84.304H251.136V85.42ZM253.809 87.652C253.809 86.956 253.949 86.348 254.229 85.828C254.517 85.308 254.913 84.908 255.417 84.628C255.929 84.348 256.513 84.208 257.169 84.208C258.009 84.208 258.709 84.428 259.269 84.868C259.837 85.308 260.209 85.928 260.385 86.728H258.201C258.017 86.216 257.661 85.96 257.133 85.96C256.757 85.96 256.457 86.108 256.233 86.404C256.009 86.692 255.897 87.108 255.897 87.652C255.897 88.196 256.009 88.616 256.233 88.912C256.457 89.2 256.757 89.344 257.133 89.344C257.661 89.344 258.017 89.088 258.201 88.576H260.385C260.209 89.36 259.837 89.976 259.269 90.424C258.701 90.872 258.001 91.096 257.169 91.096C256.513 91.096 255.929 90.956 255.417 90.676C254.913 90.396 254.517 89.996 254.229 89.476C253.949 88.956 253.809 88.348 253.809 87.652ZM262.514 83.608C262.154 83.608 261.858 83.504 261.626 83.296C261.402 83.08 261.29 82.816 261.29 82.504C261.29 82.184 261.402 81.92 261.626 81.712C261.858 81.496 262.154 81.388 262.514 81.388C262.866 81.388 263.154 81.496 263.378 81.712C263.61 81.92 263.726 82.184 263.726 82.504C263.726 82.816 263.61 83.08 263.378 83.296C263.154 83.504 262.866 83.608 262.514 83.608ZM263.534 84.304V91H261.482V84.304H263.534ZM268.069 91.096C267.413 91.096 266.821 90.956 266.293 90.676C265.773 90.396 265.361 89.996 265.057 89.476C264.761 88.956 264.613 88.348 264.613 87.652C264.613 86.964 264.765 86.36 265.069 85.84C265.373 85.312 265.789 84.908 266.317 84.628C266.845 84.348 267.437 84.208 268.093 84.208C268.749 84.208 269.341 84.348 269.869 84.628C270.397 84.908 270.813 85.312 271.117 85.84C271.421 86.36 271.573 86.964 271.573 87.652C271.573 88.34 271.417 88.948 271.105 89.476C270.801 89.996 270.381 90.396 269.845 90.676C269.317 90.956 268.725 91.096 268.069 91.096ZM268.069 89.32C268.461 89.32 268.793 89.176 269.065 88.888C269.345 88.6 269.485 88.188 269.485 87.652C269.485 87.116 269.349 86.704 269.077 86.416C268.813 86.128 268.485 85.984 268.093 85.984C267.693 85.984 267.361 86.128 267.097 86.416C266.833 86.696 266.701 87.108 266.701 87.652C266.701 88.188 266.829 88.6 267.085 88.888C267.349 89.176 267.677 89.32 268.069 89.32ZM279.189 91.084C278.397 91.084 277.669 90.9 277.005 90.532C276.349 90.164 275.825 89.652 275.433 88.996C275.049 88.332 274.857 87.588 274.857 86.764C274.857 85.94 275.049 85.2 275.433 84.544C275.825 83.888 276.349 83.376 277.005 83.008C277.669 82.64 278.397 82.456 279.189 82.456C279.981 82.456 280.705 82.64 281.361 83.008C282.025 83.376 282.545 83.888 282.921 84.544C283.305 85.2 283.497 85.94 283.497 86.764C283.497 87.588 283.305 88.332 282.921 88.996C282.537 89.652 282.017 90.164 281.361 90.532C280.705 90.9 279.981 91.084 279.189 91.084ZM279.189 89.212C279.861 89.212 280.397 88.988 280.797 88.54C281.205 88.092 281.409 87.5 281.409 86.764C281.409 86.02 281.205 85.428 280.797 84.988C280.397 84.54 279.861 84.316 279.189 84.316C278.509 84.316 277.965 84.536 277.557 84.976C277.157 85.416 276.957 86.012 276.957 86.764C276.957 87.508 277.157 88.104 277.557 88.552C277.965 88.992 278.509 89.212 279.189 89.212ZM288.719 84.232C289.503 84.232 290.127 84.488 290.591 85C291.063 85.504 291.299 86.2 291.299 87.088V91H289.259V87.364C289.259 86.916 289.143 86.568 288.911 86.32C288.679 86.072 288.367 85.948 287.975 85.948C287.583 85.948 287.271 86.072 287.039 86.32C286.807 86.568 286.691 86.916 286.691 87.364V91H284.639V84.304H286.691V85.192C286.899 84.896 287.179 84.664 287.531 84.496C287.883 84.32 288.279 84.232 288.719 84.232ZM294.776 82.12V91H292.724V82.12H294.776ZM297.296 83.608C296.936 83.608 296.64 83.504 296.408 83.296C296.184 83.08 296.072 82.816 296.072 82.504C296.072 82.184 296.184 81.92 296.408 81.712C296.64 81.496 296.936 81.388 297.296 81.388C297.648 81.388 297.936 81.496 298.16 81.712C298.392 81.92 298.508 82.184 298.508 82.504C298.508 82.816 298.392 83.08 298.16 83.296C297.936 83.504 297.648 83.608 297.296 83.608ZM298.316 84.304V91H296.264V84.304H298.316ZM303.883 84.232C304.667 84.232 305.291 84.488 305.755 85C306.227 85.504 306.463 86.2 306.463 87.088V91H304.423V87.364C304.423 86.916 304.307 86.568 304.075 86.32C303.843 86.072 303.531 85.948 303.139 85.948C302.747 85.948 302.435 86.072 302.203 86.32C301.971 86.568 301.855 86.916 301.855 87.364V91H299.803V84.304H301.855V85.192C302.063 84.896 302.343 84.664 302.695 84.496C303.047 84.32 303.443 84.232 303.883 84.232ZM314.201 87.544C314.201 87.736 314.189 87.936 314.165 88.144H309.521C309.553 88.56 309.685 88.88 309.917 89.104C310.157 89.32 310.449 89.428 310.793 89.428C311.305 89.428 311.661 89.212 311.861 88.78H314.045C313.933 89.22 313.729 89.616 313.433 89.968C313.145 90.32 312.781 90.596 312.341 90.796C311.901 90.996 311.409 91.096 310.865 91.096C310.209 91.096 309.625 90.956 309.113 90.676C308.601 90.396 308.201 89.996 307.913 89.476C307.625 88.956 307.481 88.348 307.481 87.652C307.481 86.956 307.621 86.348 307.901 85.828C308.189 85.308 308.589 84.908 309.101 84.628C309.613 84.348 310.201 84.208 310.865 84.208C311.513 84.208 312.089 84.344 312.593 84.616C313.097 84.888 313.489 85.276 313.769 85.78C314.057 86.284 314.201 86.872 314.201 87.544ZM312.101 87.004C312.101 86.652 311.981 86.372 311.741 86.164C311.501 85.956 311.201 85.852 310.841 85.852C310.497 85.852 310.205 85.952 309.965 86.152C309.733 86.352 309.589 86.636 309.533 87.004H312.101Z" fill="#FF9900"/>
<path d="M112.078 88.6511C106.469 90.818 103.71 97.0524 105.877 102.661C106.912 105.341 108.97 107.5 111.598 108.663C114.225 109.826 117.207 109.897 119.887 108.862C122.567 107.826 124.726 105.768 125.889 103.141C127.051 100.514 127.123 97.532 126.087 94.8519C125.052 92.1718 122.994 90.0128 120.367 88.85C117.739 87.6871 114.758 87.6155 112.078 88.6511ZM0 39.0446L3.90445 49.1498L14.0097 45.2454L47.0166 76.5668L44.928 91.6008C44.7167 93.3084 44.9062 95.1515 45.5895 96.9199C46.625 99.6 48.6828 101.759 51.3101 102.922C53.9374 104.085 56.9191 104.156 59.5992 103.121L120.231 79.694L116.326 69.5887L57.8168 92.1955C57.4818 92.3249 57.1091 92.316 56.7807 92.1706C56.4523 92.0253 56.1951 91.7554 56.0656 91.4204C55.968 91.1678 55.9404 90.9461 55.9829 90.7555L57.3482 80.7627L94.9903 66.2186C98.7798 64.7545 101.295 61.3439 101.822 57.598L107.279 17.9185C107.32 16.9735 107.241 16.0169 106.909 15.1579C106.392 13.8179 105.363 12.7384 104.049 12.157C102.735 11.5756 101.245 11.5398 99.9045 12.0575L25.176 40.931L16.5221 32.6608M61.5514 108.173C55.943 110.34 53.1836 116.575 55.3506 122.183C56.3861 124.863 58.4439 127.022 61.0712 128.185C63.6985 129.348 66.6802 129.419 69.3603 128.384C72.0404 127.348 74.1993 125.291 75.3622 122.663C76.5251 120.036 76.5966 117.054 75.5611 114.374C74.5256 111.694 72.4678 109.535 69.8405 108.372C67.2132 107.209 64.2315 107.138 61.5514 108.173Z" fill="#FF6B00"/>
<path d="M68.0535 54.5366L60.7373 46.8318C60.3948 46.4712 60.235 45.9654 60.2928 45.4255C60.3507 44.8857 60.6215 44.3561 61.0458 43.9532C61.47 43.5504 62.0129 43.3073 62.555 43.2774C63.0971 43.2475 63.5941 43.4334 63.9365 43.794L70.392 50.5923M69.9616 50.1391L68.2401 48.3262C67.8977 47.9656 67.7378 47.4597 67.7957 46.9199C67.8536 46.38 68.1244 45.8504 68.5486 45.4476C68.9729 45.0447 69.5158 44.8016 70.0579 44.7718C70.6 44.7419 71.0969 44.9277 71.4394 45.2883L73.5912 47.5544M72.3001 46.1947C71.9577 45.8341 71.7978 45.3283 71.8557 44.7884C71.9135 44.2486 72.1844 43.719 72.6086 43.3161C73.0328 42.9133 73.5757 42.6702 74.1178 42.6403C74.66 42.6105 75.1569 42.7963 75.4993 43.1569L76.7904 44.5165" fill="#FF6B00"/>
<path d="M68.0535 54.5366L60.7373 46.8318C60.3948 46.4712 60.235 45.9654 60.2928 45.4255C60.3507 44.8857 60.6215 44.3561 61.0458 43.9532C61.47 43.5504 62.0129 43.3073 62.555 43.2774C63.0971 43.2475 63.5941 43.4334 63.9365 43.794L70.392 50.5923M69.9616 50.1391L68.2401 48.3262C67.8977 47.9656 67.7378 47.4597 67.7957 46.9199C67.8536 46.38 68.1244 45.8504 68.5486 45.4476C68.9729 45.0447 69.5158 44.8016 70.0579 44.7718C70.6 44.7419 71.0969 44.9277 71.4394 45.2883L73.5912 47.5544M72.3001 46.1947C71.9577 45.8341 71.7978 45.3283 71.8557 44.7884C71.9135 44.2486 72.1844 43.719 72.6086 43.3161C73.0328 42.9133 73.5757 42.6702 74.1178 42.6403C74.66 42.6105 75.1569 42.7963 75.4993 43.1569L76.7904 44.5165" stroke="white" stroke-width="2.08333" stroke-linecap="round" stroke-linejoin="round"/>
<path d="M76.36 44.0633C76.0176 43.7026 75.8578 43.1968 75.9156 42.6569C75.9735 42.1171 76.2443 41.5875 76.6685 41.1847C77.0928 40.7818 77.6357 40.5387 78.1778 40.5088C78.7199 40.479 79.2168 40.6648 79.5593 41.0254L83.4325 45.1044C84.8022 46.5468 85.4417 48.5703 85.2103 50.7296C84.9788 52.889 83.8955 55.0074 82.1985 56.6188L80.0657 58.644L80.2875 58.4334C79.228 59.4398 77.9726 60.2067 76.6341 60.6654C75.2956 61.1241 73.9158 61.2601 72.6187 61.0613L72.1515 60.9878C71.4065 60.8696 68.5956 60.248 63.717 59.1232C63.2197 59.0086 62.8193 58.6962 62.601 58.2525C62.3827 57.8089 62.3638 57.269 62.5482 56.7476C62.7445 56.1921 63.114 55.6882 63.5982 55.3159C64.0824 54.9436 64.6534 54.7242 65.2206 54.6926L68.0535 54.5365M56.247 48.51L54.3198 48.6162L56.247 48.51ZM58.6235 53.1484L57.5571 54.161L58.6235 53.1484ZM65.8446 39.3964L66.0503 37.4773L65.8446 39.3964ZM69.4932 41.1031L70.5596 40.0904L69.4932 41.1031Z" fill="#FF6B00"/>
<path d="M76.36 44.0633C76.0176 43.7026 75.8578 43.1968 75.9156 42.6569C75.9735 42.1171 76.2443 41.5875 76.6685 41.1847C77.0928 40.7818 77.6357 40.5387 78.1778 40.5088C78.7199 40.479 79.2168 40.6648 79.5593 41.0254L83.4325 45.1044C84.8022 46.5468 85.4417 48.5703 85.2103 50.7296C84.9788 52.889 83.8955 55.0074 82.1985 56.6188L80.0657 58.644L80.2875 58.4334C79.228 59.4398 77.9726 60.2067 76.6341 60.6654C75.2956 61.1241 73.9158 61.2601 72.6187 61.0613L72.1515 60.9878C71.4065 60.8696 68.5956 60.248 63.717 59.1232C63.2197 59.0086 62.8193 58.6962 62.601 58.2525C62.3827 57.8089 62.3638 57.269 62.5482 56.7476C62.7445 56.1921 63.114 55.6882 63.5982 55.3159C64.0824 54.9436 64.6534 54.7242 65.2206 54.6926L68.0535 54.5365M56.247 48.51L54.3198 48.6162M58.6235 53.1484L57.5571 54.161M65.8446 39.3964L66.0503 37.4773M69.4932 41.1031L70.5596 40.0904" stroke="white" stroke-width="2.08333" stroke-linecap="round" stroke-linejoin="round"/>
</svg>
