<svg class="psvg" width="30" height="30" viewBox="0 0 50 50" fill="none" xmlns="http://www.w3.org/2000/svg">
<path d="M4.6875 5.80962V44.1885C4.68776 44.2718 4.71259 44.3531 4.75889 44.4223C4.80519 44.4915 4.87089 44.5455 4.94775 44.5776C5.02462 44.6096 5.10922 44.6182 5.19096 44.6023C5.2727 44.5864 5.34793 44.5468 5.40723 44.4883L25.3906 25L5.40723 5.50981C5.34793 5.45135 5.2727 5.4117 5.19096 5.39583C5.10922 5.37995 5.02462 5.38856 4.94775 5.42058C4.87089 5.4526 4.80519 5.5066 4.75889 5.57581C4.71259 5.64502 4.68776 5.72635 4.6875 5.80962ZM33.7695 16.9922L8.71289 3.18755L8.69727 3.17876C8.26562 2.94438 7.85547 3.52837 8.20898 3.86821L27.8506 22.6495L33.7695 16.9922ZM8.21094 46.1319C7.85547 46.4717 8.26562 47.0557 8.69922 46.8213L8.71484 46.8125L33.7695 33.0079L27.8506 27.3487L8.21094 46.1319ZM43.8848 22.5586L36.8877 18.7051L30.3086 25L36.8877 31.292L43.8848 27.4415C45.7881 26.3897 45.7881 23.6104 43.8848 22.5586Z" fill="#fff"/>
</svg>
